<?xml version="1.0" standalone="no"?>
<!DOCTYPE svg PUBLIC "-//W3C//DTD SVG 20010904//EN"
 "http://www.w3.org/TR/2001/REC-SVG-20010904/DTD/svg10.dtd">
<svg version="1.0" xmlns="http://www.w3.org/2000/svg"
 width="128.000000pt" height="128.000000pt" viewBox="0 0 128.000000 128.000000"
 preserveAspectRatio="xMidYMid meet">

<g transform="translate(0.000000,128.000000) scale(0.100000,-0.100000)"
fill="#000000" stroke="none">
<path d="M0 640 l0 -640 640 0 640 0 0 640 0 640 -640 0 -640 0 0 -640z m917
433 c-17 -37 -22 -67 -21 -128 0 -98 17 -147 107 -309 36 -65 71 -141 77 -169
13 -63 -2 -191 -32 -260 l-20 -47 -344 0 c-189 0 -344 3 -344 8 0 4 9 34 19
67 50 160 36 254 -64 434 -80 145 -97 191 -98 266 0 64 13 100 59 154 l26 31
328 0 329 0 -22 -47z"/>
<path d="M257 1014 c-14 -14 -7 -35 11 -32 9 2 17 10 17 17 0 16 -18 25 -28
15z"/>
<path d="M410 820 c0 -6 70 -10 190 -10 120 0 190 4 190 10 0 6 -70 10 -190
10 -120 0 -190 -4 -190 -10z"/>
<path d="M485 780 c-4 -6 37 -10 115 -10 78 0 119 4 115 10 -4 6 -53 10 -115
10 -62 0 -111 -4 -115 -10z"/>
<path d="M356 642 c-8 -13 11 -35 23 -28 16 10 14 36 -3 36 -8 0 -17 -4 -20
-8z"/>
<path d="M400 246 c0 -10 9 -16 21 -16 24 0 21 23 -4 28 -10 2 -17 -3 -17 -12z"/>
<path d="M782 253 c37 -2 100 -2 140 0 40 1 10 3 -67 3 -77 0 -110 -1 -73 -3z"/>
<path d="M710 220 c0 -6 52 -10 135 -10 83 0 135 4 135 10 0 6 -52 10 -135 10
-83 0 -135 -4 -135 -10z"/>
</g>
</svg>
